<svg width="469" height="321" viewBox="0 0 469 321" fill="none" xmlns="http://www.w3.org/2000/svg">
<g clip-path="url(#clip0_4673_128509)">
<path d="M459.272 321H9.72827C4.37772 321 0 316.612 0 311.249V216.567H469V311.249C469 316.612 464.622 321 459.272 321Z" fill="#22262B"/>
<path d="M469 108.333H0V212.765H469V108.333Z" fill="#22262B"/>
<path d="M469 104.432H0V9.75091C0 4.38791 4.37772 0 9.72827 0H459.272C464.622 0 469 4.38791 469 9.75091V64.356V104.432Z" fill="#22262B"/>
<path d="M447.015 73.2849L394.19 54.7041L341.366 64.455L288.541 52.754L235.619 52.949L182.795 24.3788L138.726 23.2087L77.1458 23.0137L24.3213 51.7789" stroke="#CCCCDC" stroke-opacity="0.4" stroke-width="1.21344" stroke-linecap="round" stroke-linejoin="round"/>
<path d="M446.151 26.8155L394.19 17.1621L341.366 40.5643L288.541 26.8155L235.619 36.3714L182.795 53.6305L129.97 60.1636H77.1458L24.3213 71.7672" stroke="#CCCCDC" stroke-opacity="0.4" stroke-width="1.21344" stroke-linecap="round" stroke-linejoin="round"/>
<path d="M24.3203 277.121L77.1448 269.418L129.969 247.966L182.794 260.934L235.618 281.704L288.54 252.646L341.365 259.569L394.189 254.694L447.014 235.582V300.523H24.3203V277.121Z" fill="#CCCCDC" fill-opacity="0.4"/>
<path d="M23.3477 23.9873V83.9554" stroke="#CCCCDC" stroke-opacity="0.65" stroke-width="1.21344" stroke-linecap="round" stroke-linejoin="round"/>
<path d="M447.014 83.9551H23.3477" stroke="#CCCCDC" stroke-opacity="0.65" stroke-width="1.21344" stroke-linecap="round" stroke-linejoin="round"/>
<path d="M38.9687 192.208L38.9629 182.067L22.4248 182.077L22.4307 192.218L38.9687 192.208Z" fill="#CCCCDC" fill-opacity="0.4"/>
<path d="M72.8501 192.244L72.834 175.277L56.2959 175.293L56.312 192.26L72.8501 192.244Z" fill="#CCCCDC" fill-opacity="0.4"/>
<path d="M106.727 192.185L106.708 162.348L90.1699 162.358L90.1892 192.196L106.727 192.185Z" fill="#CCCCDC" fill-opacity="0.4"/>
<path d="M140.612 192.125L140.577 154.486L124.039 154.502L124.074 192.14L140.612 192.125Z" fill="#CCCCDC" fill-opacity="0.4"/>
<path d="M174.479 192.164L174.461 152.186L157.923 152.193L157.941 192.172L174.479 192.164Z" fill="#CCCCDC" fill-opacity="0.4"/>
<path d="M208.707 192.153L208.693 146.714L192.155 146.719L192.169 192.158L208.707 192.153Z" fill="#CCCCDC" fill-opacity="0.4"/>
<path d="M242.585 192.189L242.569 148.7L226.031 148.706L226.047 192.195L242.585 192.189Z" fill="#CCCCDC" fill-opacity="0.4"/>
<path d="M276.474 192.133L276.444 130.117L259.906 130.125L259.936 192.141L276.474 192.133Z" fill="#CCCCDC" fill-opacity="0.4"/>
<path d="M310.403 192.162L310.387 159.594L293.849 159.602L293.865 192.17L310.403 192.162Z" fill="#CCCCDC" fill-opacity="0.4"/>
<path d="M344.28 192.192L344.261 174.056L327.723 174.073L327.742 192.21L344.28 192.192Z" fill="#CCCCDC" fill-opacity="0.4"/>
<path d="M378.165 192.136L378.13 154.497L361.592 154.512L361.627 192.151L378.165 192.136Z" fill="#CCCCDC" fill-opacity="0.4"/>
<path d="M412.032 192.176L412.014 142.446L395.476 142.452L395.494 192.182L412.032 192.176Z" fill="#CCCCDC" fill-opacity="0.4"/>
<path d="M446.26 192.164L446.246 130.148L429.708 130.152L429.722 192.168L446.26 192.164Z" fill="#CCCCDC" fill-opacity="0.4"/>
<path d="M23.3477 240.555V300.523" stroke="#CCCCDC" stroke-opacity="0.65" stroke-width="1.21344" stroke-linecap="round" stroke-linejoin="round"/>
<path d="M447.014 300.523H23.3477" stroke="#CCCCDC" stroke-opacity="0.65" stroke-width="1.21344" stroke-linecap="round" stroke-linejoin="round"/>
</g>
<defs>
<clipPath id="clip0_4673_128509">
<rect width="469" height="321" fill="white"/>
</clipPath>
</defs>
</svg>
