<svg width="469" height="311" viewBox="0 0 469 311" fill="none" xmlns="http://www.w3.org/2000/svg">
<g clip-path="url(#clip0_4673_128717)">
<path d="M153.781 311H9.56948C4.30626 311 0 306.696 0 301.436V157.604H153.781V311Z" fill="#22262B"/>
<path d="M102.182 196.119V185.886H91.9423V196.119H102.182Z" fill="#CCCCDC" fill-opacity="0.4"/>
<path d="M81.5156 196.116V185.883H71.2763V196.116H81.5156Z" fill="#CCCCDC" fill-opacity="0.4"/>
<path d="M60.8516 196.109V185.876H50.6122V196.109H60.8516Z" fill="#CCCCDC" fill-opacity="0.4"/>
<path d="M40.1787 196.111V185.878H29.9394V196.111H40.1787Z" fill="#CCCCDC" fill-opacity="0.4"/>
<path d="M81.5391 217.752V207.52H71.2997V217.752H81.5391Z" fill="#CCCCDC" fill-opacity="0.4"/>
<path d="M60.876 217.745V207.513H50.6366V217.745H60.876Z" fill="#CCCCDC" fill-opacity="0.4"/>
<path d="M40.2031 217.748V207.516H29.9638V217.748H40.2031Z" fill="#CCCCDC" fill-opacity="0.4"/>
<path d="M81.5635 239.389V229.156H71.3241V239.389H81.5635Z" fill="#CCCCDC" fill-opacity="0.4"/>
<path d="M40.2266 239.386V229.153H29.9872V239.386H40.2266Z" fill="#CCCCDC" fill-opacity="0.4"/>
<path d="M123.796 196.132V185.899H113.557V196.132H123.796Z" fill="#CCCCDC" fill-opacity="0.65"/>
<path d="M123.82 217.769V207.536H113.581V217.769H123.82Z" fill="#CCCCDC" fill-opacity="0.65"/>
<path d="M102.206 217.756V207.523H91.9667V217.756H102.206Z" fill="#CCCCDC" fill-opacity="0.65"/>
<path d="M123.845 239.407V229.174H113.605V239.407H123.845Z" fill="#CCCCDC" fill-opacity="0.65"/>
<path d="M102.23 239.394V229.161H91.9911V239.394H102.23Z" fill="#CCCCDC" fill-opacity="0.65"/>
<path d="M60.9004 239.384V229.151H50.6611V239.384H60.9004Z" fill="#CCCCDC" fill-opacity="0.65"/>
<path d="M123.869 261.044V250.812H113.63V261.044H123.869Z" fill="#CCCCDC" fill-opacity="0.65"/>
<path d="M102.254 261.032V250.799H92.0146V261.032H102.254Z" fill="#CCCCDC" fill-opacity="0.65"/>
<path d="M81.5879 261.028V250.795H71.3486V261.028H81.5879Z" fill="#CCCCDC" fill-opacity="0.65"/>
<path d="M60.9238 261.022V250.789H50.6845V261.022H60.9238Z" fill="#CCCCDC" fill-opacity="0.65"/>
<path d="M40.252 261.024V250.791H30.0126V261.024H40.252Z" fill="#CCCCDC" fill-opacity="0.65"/>
<path d="M123.797 282.681V272.448H113.558V282.681H123.797Z" fill="#CCCCDC" fill-opacity="0.65"/>
<path d="M102.183 282.668V272.436H91.9433V282.668H102.183Z" fill="#CCCCDC" fill-opacity="0.65"/>
<path d="M81.5166 282.665V272.433H71.2773V282.665H81.5166Z" fill="#CCCCDC" fill-opacity="0.65"/>
<path d="M60.8525 282.659V272.426H50.6132V282.659H60.8525Z" fill="#CCCCDC" fill-opacity="0.65"/>
<path d="M40.1797 282.661V272.428H29.9403V282.661H40.1797Z" fill="#CCCCDC" fill-opacity="0.65"/>
<path d="M469 153.396H315.219V0H459.431C464.694 0 469 4.30351 469 9.56335V63.1181V153.396V153.396Z" fill="#22262B"/>
<path d="M153.781 153.396H0V9.56335C0 4.30351 4.30626 0 9.56948 0H153.781V153.396Z" fill="#22262B"/>
<path d="M124.211 46.7646L105.36 70.1948L86.412 70.9599L67.5602 89.5128H48.7083L29.8564 112.752" stroke="#CCCCDC" stroke-opacity="0.4" stroke-width="1.23616" stroke-linecap="round" stroke-linejoin="round"/>
<path d="M124.211 111.031L105.36 90.2783L86.412 91.0434L67.5602 62.1621H48.7083L29.8564 75.8377" stroke="#CCCCDC" stroke-opacity="0.4" stroke-width="1.23616" stroke-linecap="round" stroke-linejoin="round"/>
<path d="M29.8564 28.1162V123.463" stroke="#CCCCDC" stroke-opacity="0.65" stroke-width="1.23616" stroke-linecap="round" stroke-linejoin="round"/>
<path d="M124.307 123.463H29.9521" stroke="#CCCCDC" stroke-opacity="0.65" stroke-width="1.23616" stroke-linecap="round" stroke-linejoin="round"/>
<path d="M459.431 311H315.219V157.604H469V301.436C469 306.696 464.694 311 459.431 311Z" fill="#22262B"/>
<path d="M364.597 261.366C361.439 256.393 359.621 250.368 359.621 243.865C359.621 225.981 374.071 211.35 392.157 211.35C410.052 211.35 424.693 225.79 424.693 243.865C424.693 251.229 422.301 258.019 418.186 263.279L429.478 272.459C435.698 264.522 439.239 254.576 439.239 243.674C439.239 217.661 418.186 196.526 392.061 196.526C366.032 196.526 344.884 217.566 344.884 243.674C344.884 253.62 347.85 262.8 353.209 270.355L364.597 261.366Z" fill="#CCCCDC" fill-opacity="0.4"/>
<path d="M392.061 211.444C393.592 211.444 394.932 211.636 396.463 211.731L398.569 197.291C396.463 197.004 394.358 196.812 392.061 196.812C366.032 196.812 344.884 217.852 344.884 243.96C344.884 253.906 347.85 263.086 353.209 270.642L364.693 261.461C361.535 256.488 359.716 250.463 359.716 243.96C359.525 226.076 374.071 211.444 392.061 211.444Z" fill="#CCCCDC" fill-opacity="0.65"/>
<path d="M407.659 234.876H376.463V247.021H407.659V234.876Z" fill="#CCCCDC" fill-opacity="0.4"/>
<path d="M311.391 0H157.609V153.396H311.391V0Z" fill="#22262B"/>
<path d="M345.171 85.0181L364.118 72.2032H382.97L401.822 54.1285H420.674L439.526 28.1162V123.463H345.171V85.0181Z" fill="#CCCCDC" fill-opacity="0.4"/>
<path d="M345.075 28.1162V123.463" stroke="#CCCCDC" stroke-opacity="0.65" stroke-width="1.23616" stroke-linecap="round" stroke-linejoin="round"/>
<path d="M439.526 123.463H345.171" stroke="#CCCCDC" stroke-opacity="0.65" stroke-width="1.23616" stroke-linecap="round" stroke-linejoin="round"/>
<path d="M311.391 157.604H157.609V311H311.391V157.604Z" fill="#22262B"/>
<path d="M187.21 197.387L250.751 197.38L250.75 187.147L187.209 187.154L187.21 197.387Z" fill="#CCCCDC" fill-opacity="0.65"/>
<path d="M187.206 218.405L232.087 218.391L232.084 208.158L187.203 208.173L187.206 218.405Z" fill="#CCCCDC" fill-opacity="0.65"/>
<path d="M187.232 239.424L265.702 239.404L265.7 229.172L187.23 229.191L187.232 239.424Z" fill="#CCCCDC" fill-opacity="0.65"/>
<path d="M187.228 260.444L274.789 260.413L274.785 250.18L187.225 250.211L187.228 260.444Z" fill="#CCCCDC" fill-opacity="0.65"/>
<path d="M187.207 281.456L281.754 281.433L281.751 271.2L187.205 271.223L187.207 281.456Z" fill="#CCCCDC" fill-opacity="0.4"/>
<path d="M187.21 197.387L228.741 197.38L228.74 187.147L187.208 187.154L187.21 197.387Z" fill="#CCCCDC" fill-opacity="0.4"/>
<path d="M187.209 218.405L202.425 218.391L202.415 208.158L187.199 208.173L187.209 218.405Z" fill="#CCCCDC" fill-opacity="0.4"/>
<path d="M187.233 239.424L225.511 239.404L225.506 229.172L187.228 229.191L187.233 239.424Z" fill="#CCCCDC" fill-opacity="0.4"/>
<path d="M187.228 260.444L258.521 260.413L258.516 250.18L187.224 250.211L187.228 260.444Z" fill="#CCCCDC" fill-opacity="0.4"/>
<path d="M197.527 123.43L197.52 105.833L187.28 105.837L187.288 123.434L197.527 123.43Z" fill="#CCCCDC" fill-opacity="0.4"/>
<path d="M218.621 123.396L218.605 70.8936L208.366 70.8966L208.382 123.399L218.621 123.396Z" fill="#CCCCDC" fill-opacity="0.4"/>
<path d="M239.602 123.346L239.581 43.9707L229.342 43.9734L229.363 123.349L239.602 123.346Z" fill="#CCCCDC" fill-opacity="0.4"/>
<path d="M260.698 123.407L260.665 55.0293L250.426 55.0342L250.458 123.412L260.698 123.407Z" fill="#CCCCDC" fill-opacity="0.4"/>
<path d="M281.679 123.365L281.653 28.1143L271.414 28.117L271.44 123.368L281.679 123.365Z" fill="#CCCCDC" fill-opacity="0.4"/>
</g>
<defs>
<clipPath id="clip0_4673_128717">
<rect width="469" height="311" fill="white"/>
</clipPath>
</defs>
</svg>
