<svg width="466" height="704" viewBox="0 0 466 704" fill="none" xmlns="http://www.w3.org/2000/svg">
<path d="M450.24 701.999H15.4265C7.49191 701.999 1 695.559 1 687.687V472.577H464.666V687.83C464.666 695.702 458.175 701.999 450.24 701.999Z" fill="#22262B"/>
<path d="M464.668 231.565H1.00195V16.312C1.00195 8.44041 7.49386 2 15.4284 2H450.242C458.176 2 464.668 8.44041 464.668 16.312V96.4594V231.565Z" fill="#22262B"/>
<path d="M417.732 51.0498L346.66 95.3144L270.921 96.7456L195.182 129.377H119.443L43.7041 170.453" stroke="#CCCCDC" stroke-opacity="0.4" stroke-width="1.22549" stroke-linecap="round" stroke-linejoin="round"/>
<path d="M422.399 167.446L346.66 145.119L270.921 146.407L195.182 66.832H119.443L43.7041 105.188" stroke="#CCCCDC" stroke-opacity="0.4" stroke-width="1.22549" stroke-linecap="round" stroke-linejoin="round"/>
<path d="M43.7041 45.5088V189.345" stroke="#CCCCDC" stroke-opacity="0.65" stroke-width="1.22549" stroke-linecap="round" stroke-linejoin="round"/>
<path d="M422.399 189.345H43.7041" stroke="#CCCCDC" stroke-opacity="0.65" stroke-width="1.22549" stroke-linecap="round" stroke-linejoin="round"/>
<path d="M464.666 237.289H1V466.854H464.666V237.289Z" fill="#22262B"/>
<path d="M68.8556 423.93L68.8408 388.293L44.3158 388.303L44.3306 423.94L68.8556 423.93Z" fill="#CCCCDC" fill-opacity="0.4"/>
<path d="M119.073 423.813L119.04 371.86L94.5151 371.876L94.5478 423.828L119.073 423.813Z" fill="#CCCCDC" fill-opacity="0.4"/>
<path d="M169.354 423.913L169.312 340.76L144.787 340.772L144.829 423.925L169.354 423.913Z" fill="#CCCCDC" fill-opacity="0.4"/>
<path d="M219.72 423.8L219.651 324.331L195.126 324.348L195.195 423.816L219.72 423.8Z" fill="#CCCCDC" fill-opacity="0.4"/>
<path d="M269.946 423.719L269.896 294.768L245.372 294.777L245.421 423.728L269.946 423.719Z" fill="#CCCCDC" fill-opacity="0.4"/>
<path d="M320.555 423.837L320.522 348.985L295.997 348.996L296.03 423.848L320.555 423.837Z" fill="#CCCCDC" fill-opacity="0.4"/>
<path d="M370.837 423.794L370.794 312.017L346.269 312.026L346.312 423.803L370.837 423.794Z" fill="#CCCCDC" fill-opacity="0.4"/>
<path d="M421.2 423.679L421.132 281.274L396.607 281.286L396.675 423.691L421.2 423.679Z" fill="#CCCCDC" fill-opacity="0.4"/>
<path d="M43.7041 515.373V659.066" stroke="#CCCCDC" stroke-opacity="0.65" stroke-width="1.22549" stroke-linecap="round" stroke-linejoin="round"/>
<path d="M422.399 659.064H43.7041" stroke="#CCCCDC" stroke-opacity="0.65" stroke-width="1.22549" stroke-linecap="round" stroke-linejoin="round"/>
<path d="M44.2842 615.988L121.754 582.498L199.224 603.966L276.694 548.292H354.309L431.779 513.514V659.067H44.2842V615.988Z" fill="#CCCCDC" fill-opacity="0.4"/>
<path d="M43.7041 516.519V659.066" stroke="#CCCCDC" stroke-opacity="0.65" stroke-width="1.22549" stroke-linecap="round" stroke-linejoin="round"/>
<path d="M431.777 659.066H44.2822" stroke="#CCCCDC" stroke-opacity="0.65" stroke-width="1.22549" stroke-linecap="round" stroke-linejoin="round"/>
</svg>
