<svg width="469" height="701" viewBox="0 0 469 701" fill="none" xmlns="http://www.w3.org/2000/svg">
<g clip-path="url(#clip0_4673_128917)">
<path d="M469.435 235.883H237.604V465.468H469.435V235.883Z" fill="#22262B"/>
<path d="M391.646 293.527V278.212H376.209V293.527H391.646Z" fill="#CCCCDC" fill-opacity="0.4"/>
<path d="M360.489 293.52V278.205H345.053V293.52H360.489Z" fill="#CCCCDC" fill-opacity="0.4"/>
<path d="M329.339 293.512V278.196H313.903V293.512H329.339Z" fill="#CCCCDC" fill-opacity="0.4"/>
<path d="M298.173 293.515V278.2H282.737V293.515H298.173Z" fill="#CCCCDC" fill-opacity="0.4"/>
<path d="M360.525 325.904V310.589H345.089V325.904H360.525Z" fill="#CCCCDC" fill-opacity="0.4"/>
<path d="M329.374 325.896V310.581H313.938V325.896H329.374Z" fill="#CCCCDC" fill-opacity="0.4"/>
<path d="M298.21 325.9V310.585H282.774V325.9H298.21Z" fill="#CCCCDC" fill-opacity="0.4"/>
<path d="M360.562 358.289V342.974H345.126V358.289H360.562Z" fill="#CCCCDC" fill-opacity="0.4"/>
<path d="M298.244 358.284V342.969H282.808V358.284H298.244Z" fill="#CCCCDC" fill-opacity="0.4"/>
<path d="M424.225 293.548V278.232H408.788V293.548H424.225Z" fill="#CCCCDC" fill-opacity="0.65"/>
<path d="M424.263 325.932V310.617H408.827V325.932H424.263Z" fill="#CCCCDC" fill-opacity="0.65"/>
<path d="M391.679 325.912V310.597H376.243V325.912H391.679Z" fill="#CCCCDC" fill-opacity="0.65"/>
<path d="M424.299 358.314V342.999H408.863V358.314H424.299Z" fill="#CCCCDC" fill-opacity="0.65"/>
<path d="M391.716 358.298V342.982H376.28V358.298H391.716Z" fill="#CCCCDC" fill-opacity="0.65"/>
<path d="M329.409 358.283V342.968H313.973V358.283H329.409Z" fill="#CCCCDC" fill-opacity="0.65"/>
<path d="M424.336 390.699V375.384H408.9V390.699H424.336Z" fill="#CCCCDC" fill-opacity="0.65"/>
<path d="M391.752 390.681V375.365H376.316V390.681H391.752Z" fill="#CCCCDC" fill-opacity="0.65"/>
<path d="M360.596 390.676V375.36H345.16V390.676H360.596Z" fill="#CCCCDC" fill-opacity="0.65"/>
<path d="M329.444 390.666V375.351H314.008V390.666H329.444Z" fill="#CCCCDC" fill-opacity="0.65"/>
<path d="M298.281 390.669V375.354H282.845V390.669H298.281Z" fill="#CCCCDC" fill-opacity="0.65"/>
<path d="M424.229 423.084V407.769H408.793V423.084H424.229Z" fill="#CCCCDC" fill-opacity="0.65"/>
<path d="M391.646 423.064V407.749H376.21V423.064H391.646Z" fill="#CCCCDC" fill-opacity="0.65"/>
<path d="M360.489 423.06V407.745H345.053V423.06H360.489Z" fill="#CCCCDC" fill-opacity="0.65"/>
<path d="M329.339 423.051V407.735H313.903V423.051H329.339Z" fill="#CCCCDC" fill-opacity="0.65"/>
<path d="M298.173 423.053V407.737H282.737V423.053H298.173Z" fill="#CCCCDC" fill-opacity="0.65"/>
<path d="M469.435 229.586H237.604V0H455.008C462.943 0 469.435 6.44099 469.435 14.3133V94.4679V229.586Z" fill="#22262B"/>
<path d="M297.777 184.736L297.766 158.399L282.329 158.406L282.341 184.743L297.777 184.736Z" fill="#CCCCDC" fill-opacity="0.4"/>
<path d="M329.577 184.684L329.553 106.104L314.117 106.108L314.14 184.688L329.577 184.684Z" fill="#CCCCDC" fill-opacity="0.4"/>
<path d="M361.206 184.611L361.174 65.8105L345.738 65.8147L345.77 184.615L361.206 184.611Z" fill="#CCCCDC" fill-opacity="0.4"/>
<path d="M393.008 184.701L392.959 82.3604L377.523 82.3677L377.572 184.708L393.008 184.701Z" fill="#CCCCDC" fill-opacity="0.4"/>
<path d="M424.64 184.639L424.602 42.0781L409.165 42.0823L409.204 184.643L424.64 184.639Z" fill="#CCCCDC" fill-opacity="0.4"/>
<path d="M455.008 700.78H237.604V471.194H469.435V686.467C469.435 694.339 462.943 700.78 455.008 700.78Z" fill="#22262B"/>
<path d="M231.831 229.586H0V14.3133C0 6.44099 6.49185 0 14.4263 0H231.831V229.586Z" fill="#22262B"/>
<path d="M231.831 700.78H14.4263C6.49185 700.78 0 694.339 0 686.467V471.194H231.831V700.78Z" fill="#22262B"/>
<path d="M74.436 626.347C69.6753 618.904 66.9343 609.887 66.9343 600.154C66.9343 573.388 88.7181 551.488 115.984 551.488C142.961 551.488 165.033 573.101 165.033 600.154C165.033 611.175 161.427 621.337 155.223 629.21L172.246 642.95C181.624 631.07 186.961 616.185 186.961 599.867C186.961 560.935 155.223 529.303 115.84 529.303C76.6 529.303 44.7178 560.792 44.7178 599.867C44.7178 614.753 49.1899 628.494 57.2687 639.802L74.436 626.347Z" fill="#CCCCDC" fill-opacity="0.4"/>
<path d="M115.84 551.774C118.148 551.774 120.167 552.061 122.476 552.204L125.649 530.591C122.476 530.161 119.302 529.875 115.84 529.875C76.6 529.875 44.7178 561.364 44.7178 600.44C44.7178 615.325 49.1899 629.066 57.2687 640.374L74.5803 626.633C69.8196 619.19 67.0786 610.173 67.0786 600.44C66.79 573.674 88.7181 551.774 115.84 551.774Z" fill="#CCCCDC" fill-opacity="0.65"/>
<path d="M231.831 235.883H0V465.468H231.831V235.883Z" fill="#22262B"/>
<path d="M187.255 69.9941L158.835 105.062L130.271 106.207L101.851 133.975H73.4316L45.0117 168.756" stroke="#CCCCDC" stroke-opacity="0.4" stroke-width="1.22549" stroke-miterlimit="10" stroke-linecap="round" stroke-linejoin="round"/>
<path d="M187.255 166.178L158.835 135.118L130.271 136.263L101.851 93.0371H73.4316L45.0117 113.505" stroke="#CCCCDC" stroke-opacity="0.4" stroke-width="1.22549" stroke-miterlimit="10" stroke-linecap="round" stroke-linejoin="round"/>
<path d="M45.0117 42.0811V184.785" stroke="#CCCCDC" stroke-opacity="0.65" stroke-width="1.22549" stroke-linecap="round" stroke-linejoin="round"/>
<path d="M187.4 184.784H45.1562" stroke="#CCCCDC" stroke-opacity="0.65" stroke-width="1.22549" stroke-linecap="round" stroke-linejoin="round"/>
<path d="M139.358 586.845H92.3281V605.023H139.358V586.845Z" fill="#CCCCDC" fill-opacity="0.4"/>
<path d="M45.1543 363.129L73.7184 343.949H102.138L130.558 316.897H158.978L187.398 277.965V420.525H45.1543V363.129Z" fill="#CCCCDC" fill-opacity="0.4"/>
<path d="M45.0117 277.964V420.524" stroke="#CCCCDC" stroke-opacity="0.65" stroke-width="1.22549" stroke-linecap="round" stroke-linejoin="round"/>
<path d="M187.4 420.524H45.1562" stroke="#CCCCDC" stroke-opacity="0.65" stroke-width="1.22549" stroke-linecap="round" stroke-linejoin="round"/>
<path d="M282.23 530.687L378.021 530.677L378.019 515.361L282.228 515.372L282.23 530.687Z" fill="#CCCCDC" fill-opacity="0.65"/>
<path d="M282.224 562.147L349.884 562.125L349.879 546.81L282.219 546.832L282.224 562.147Z" fill="#CCCCDC" fill-opacity="0.65"/>
<path d="M282.262 593.602L400.558 593.573L400.554 578.258L282.258 578.287L282.262 593.602Z" fill="#CCCCDC" fill-opacity="0.65"/>
<path d="M282.255 625.062L414.256 625.017L414.25 609.701L282.25 609.747L282.255 625.062Z" fill="#CCCCDC" fill-opacity="0.65"/>
<path d="M282.224 656.512L424.756 656.478L424.752 641.162L282.22 641.197L282.224 656.512Z" fill="#CCCCDC" fill-opacity="0.4"/>
<path d="M282.225 530.687L344.835 530.677L344.832 515.361L282.222 515.372L282.225 530.687Z" fill="#CCCCDC" fill-opacity="0.4"/>
<path d="M282.224 562.147L305.162 562.125L305.147 546.81L282.209 546.832L282.224 562.147Z" fill="#CCCCDC" fill-opacity="0.4"/>
<path d="M282.26 593.602L339.965 593.573L339.957 578.258L282.252 578.287L282.26 593.602Z" fill="#CCCCDC" fill-opacity="0.4"/>
<path d="M282.255 625.062L389.731 625.017L389.725 609.701L282.249 609.747L282.255 625.062Z" fill="#CCCCDC" fill-opacity="0.4"/>
</g>
<defs>
<clipPath id="clip0_4673_128917">
<rect width="469" height="700.78" fill="white"/>
</clipPath>
</defs>
</svg>
